<svg width="25" height="25" viewBox="0 0 25 25" fill="none" xmlns="http://www.w3.org/2000/svg">
<path d="M6.99982 18.7656H4.44983C3.01983 18.7656 2.2998 18.0456 2.2998 16.6156V4.91565C2.2998 3.48565 3.01983 2.76562 4.44983 2.76562H8.74982C10.1798 2.76562 10.8998 3.48565 10.8998 4.91565V6.76562" stroke="white" stroke-width="1.5" stroke-miterlimit="10" stroke-linecap="round" stroke-linejoin="round"/>
<path d="M17.6697 9.18561V20.3456C17.6697 21.9556 16.8698 22.7656 15.2598 22.7656H9.41974C7.80974 22.7656 6.99976 21.9556 6.99976 20.3456V9.18561C6.99976 7.57561 7.80974 6.76562 9.41974 6.76562H15.2598C16.8698 6.76562 17.6697 7.57561 17.6697 9.18561Z" stroke="white" stroke-width="1.5" stroke-miterlimit="10" stroke-linecap="round" stroke-linejoin="round"/>
<path d="M13.6998 6.76562V4.91565C13.6998 3.48565 14.4198 2.76562 15.8498 2.76562H20.1498C21.5798 2.76562 22.2998 3.48565 22.2998 4.91565V16.6156C22.2998 18.0456 21.5798 18.7656 20.1498 18.7656H17.6698" stroke="white" stroke-width="1.5" stroke-miterlimit="10" stroke-linecap="round" stroke-linejoin="round"/>
<path d="M10.2998 11.7656H14.2998" stroke="white" stroke-width="1.5" stroke-miterlimit="10" stroke-linecap="round" stroke-linejoin="round"/>
<path d="M10.2998 14.7656H14.2998" stroke="white" stroke-width="1.5" stroke-miterlimit="10" stroke-linecap="round" stroke-linejoin="round"/>
<path d="M12.2998 22.7656V19.7656" stroke="white" stroke-width="1.5" stroke-miterlimit="10" stroke-linecap="round" stroke-linejoin="round"/>
</svg>
